first trial
nRows=23
nColumns=38

# SIMM Motion File Header:
name Sujet_03_velo_60.mvnx
datacolumns 38
datarows 23
otherdata 1
range 11.5990 11.9660
endheader
time pelvis_tilt  pelvis_list  pelvis_rotation  pelvis_tx  pelvis_ty  pelvis_tz  hip_flexion_r  hip_adduction_r  hip_rotation_r  knee_angle_r  ankle_angle_r  subtalar_angle_r  mtp_angle_r  hip_flexion_l  hip_adduction_l  hip_rotation_l  knee_angle_l  ankle_angle_l  subtalar_angle_l  mtp_angle_l  lumbar_extension  lumbar_bending  lumbar_rotation  arm_flex_r  arm_add_r  arm_rot_r  elbow_flex_r  pro_sup_r  wrist_flex_r  wrist_dev_r  arm_flex_l  arm_add_l  arm_rot_l  elbow_flex_l  pro_sup_l  wrist_flex_l  wrist_dev_l
11.5990	-17.5624	-0.0146	-85.8650	0.0000	1.2500	-0.0000	68.6245	0.4196	-4.6578	64.5286	-0.1831	-1.9682	-0.0000	64.6044	-6.5368	1.3896	91.8852	0.2976	2.3046	0.0000	-15.4520	-0.0345	-1.3359	75.3887	4.5791	15.0538	-2.6929	63.1788	-28.8376	-15.1891	75.8568	-1.9108	22.4866	1.7238	65.0147	-27.5354	-15.5368	
11.6160	-17.5873	0.0495	-85.6175	0.0000	1.2500	-0.0000	66.0864	0.4102	-4.7735	61.0833	-1.3845	-1.3722	0.0000	66.6263	-6.6793	1.6184	94.7775	0.9162	2.0426	-0.0000	-15.4029	-0.0548	-1.3647	75.2968	4.4379	15.1087	-2.7257	63.0517	-28.8113	-15.2262	75.8079	-1.7768	22.5588	1.7314	65.0386	-27.5861	-15.5406	
11.6330	-17.6110	0.1080	-85.3182	0.0000	1.2500	-0.0000	63.5761	0.3518	-4.7805	57.8061	-2.7654	-0.7106	-0.0000	68.7068	-6.7193	1.6604	97.4777	1.5126	1.6433	-0.0000	-15.3523	-0.0547	-1.4076	75.1836	4.3148	15.1456	-2.7545	62.9411	-28.7849	-15.2750	75.7365	-1.6468	22.6443	1.7347	65.0470	-27.6398	-15.5460	
11.6490	-17.6223	0.1691	-84.9448	0.0000	1.2500	-0.0000	61.1745	0.2604	-4.7258	54.9019	-4.0397	-0.2030	0.0000	70.8074	-6.6050	1.6199	99.8780	1.9352	1.0088	-0.0000	-15.3087	-0.0274	-1.4748	75.0552	4.2192	15.1882	-2.7799	62.8276	-28.7582	-15.3183	75.6840	-1.5120	22.6952	1.7403	65.0809	-27.6863	-15.5545	
11.6660	-17.6165	0.2342	-84.4467	0.0000	1.2500	-0.0000	58.8908	0.1117	-4.5842	52.4440	-5.1226	0.0631	-0.0000	72.9407	-6.2847	1.4749	101.9511	2.0687	0.0060	-0.0000	-15.2743	0.0378	-1.5782	74.9028	4.1634	15.2581	-2.8026	62.6861	-28.7294	-15.3588	75.6731	-1.3615	22.6902	1.7443	65.1695	-27.7164	-15.5684	
11.6830	-17.5978	0.3013	-83.8743	0.0000	1.2500	-0.0000	56.7140	-0.0710	-4.3905	50.3574	-6.0957	0.1765	0.0000	75.0886	-5.8153	1.2188	103.7252	2.0411	-1.2377	0.0000	-15.2463	0.1300	-1.7059	74.7354	4.1353	15.3340	-2.8219	62.5415	-28.7003	-15.3938	75.6812	-1.2062	22.6504	1.7504	65.2834	-27.7392	-15.5854	
11.6990	-17.5692	0.3732	-83.3573	0.0000	1.2500	-0.0000	54.6963	-0.1949	-4.2709	48.6282	-6.9190	0.1832	0.0000	77.1695	-5.2998	0.9890	105.1814	2.0628	-2.4309	0.0000	-15.2256	0.2228	-1.8315	74.5853	4.1073	15.3761	-2.8354	62.4490	-28.6758	-15.3981	75.6820	-1.0696	22.5913	1.7765	65.3761	-27.7722	-15.6000	
11.7160	-17.5285	0.4585	-82.9343	0.0000	1.2500	-0.0000	52.8319	-0.2219	-4.3051	47.2340	-7.5714	0.0661	0.0000	79.1981	-4.7401	0.8291	106.3298	2.1746	-3.4895	-0.0000	-15.2114	0.3094	-1.9508	74.4470	4.0658	15.3655	-2.8469	62.4395	-28.6611	-15.3610	75.6630	-0.9624	22.4923	1.8415	65.4473	-27.8274	-15.6074	
11.7330	-17.4779	0.5484	-82.5666	0.0000	1.2500	-0.0000	51.1292	-0.1885	-4.3986	46.1978	-8.0717	-0.1522	-0.0000	81.1626	-4.1340	0.6989	107.1648	2.3363	-4.5055	-0.0000	-15.2045	0.3968	-2.0678	74.3259	4.0241	15.3211	-2.8524	62.4821	-28.6508	-15.2933	75.6370	-0.8739	22.3741	1.9265	65.4971	-27.8927	-15.6124	
11.7490	-17.4263	0.6189	-82.2678	0.0000	1.2500	-0.0000	49.6625	-0.1204	-4.4055	45.5779	-8.4415	-0.3706	-0.0000	82.9451	-3.5715	0.6328	107.6424	2.6193	-5.4440	0.0000	-15.2082	0.4794	-2.1684	74.2700	3.9958	15.2602	-2.8385	62.5390	-28.6341	-15.2014	75.6149	-0.7964	22.3148	1.9935	65.4794	-27.9492	-15.6239	
11.7660	-17.3750	0.6687	-82.0418	0.0000	1.2500	-0.0000	48.4380	-0.0204	-4.2706	45.3864	-8.6624	-0.6084	-0.0000	84.5328	-3.0726	0.6838	107.7362	3.0733	-6.3048	-0.0000	-15.2270	0.5556	-2.2482	74.3192	3.9880	15.1800	-2.7855	62.5966	-28.6004	-15.0706	75.5981	-0.7313	22.3782	2.0294	65.3402	-27.9926	-15.6487	
11.7830	-17.3233	0.6995	-81.8846	0.0000	1.2500	-0.0000	47.4482	0.1027	-4.0422	45.6115	-8.7536	-0.8552	-0.0000	85.9392	-2.6102	0.8165	107.4700	3.6266	-7.0709	-0.0000	-15.2566	0.6272	-2.3113	74.4336	3.9939	15.0831	-2.7127	62.6688	-28.5602	-14.9156	75.5853	-0.6772	22.5006	2.0480	65.1337	-28.0271	-15.6801	
11.7990	-17.2769	0.6929	-81.7980	0.0000	1.2500	-0.0000	46.7468	0.2118	-3.7319	46.2769	-8.7953	-0.9710	-0.0000	87.0859	-2.2049	0.9415	106.8750	4.1678	-7.6810	-0.0000	-15.2880	0.6947	-2.3566	74.5418	4.0060	14.9936	-2.6651	62.7581	-28.5339	-14.7882	75.5835	-0.6224	22.5680	2.0507	64.9761	-28.0466	-15.7063	
11.8160	-17.2352	0.6305	-81.7969	0.0000	1.2500	-0.0000	46.3623	0.3083	-3.2931	47.4187	-8.8015	-0.9099	0.0000	87.9629	-1.8708	1.0586	105.9506	4.6798	-8.1258	-0.0000	-15.3200	0.7606	-2.3811	74.6050	4.0266	14.9337	-2.6683	62.8573	-28.5343	-14.7091	75.6027	-0.5653	22.5090	2.0384	64.9292	-28.0481	-15.7223	
11.8330	-17.1989	0.5308	-81.8663	0.0000	1.2500	-0.0000	46.2671	0.3921	-2.7723	48.9921	-8.7544	-0.7293	0.0000	88.5806	-1.5954	1.1811	104.6998	5.1826	-8.4133	-0.0000	-15.3541	0.8223	-2.3876	74.6619	4.0533	14.8811	-2.6970	62.9736	-28.5485	-14.6574	75.6332	-0.5075	22.3950	2.0098	64.9311	-28.0346	-15.7330	
11.8490	-17.1752	0.4298	-81.9639	0.0000	1.2500	-0.0000	46.4310	0.4262	-2.3229	50.9035	-8.6878	-0.4410	-0.0000	88.8937	-1.3643	1.2379	103.1623	5.6311	-8.5203	0.0000	-15.3849	0.8722	-2.3834	74.7571	4.0717	14.7931	-2.7196	63.1306	-28.5583	-14.6218	75.6514	-0.4423	22.3268	1.9626	64.9122	-28.0080	-15.7421	
11.8660	-17.1682	0.3379	-82.0883	0.0000	1.2500	-0.0000	46.8714	0.3976	-2.0043	53.1669	-8.6229	-0.0247	-0.0000	88.8833	-1.1746	1.1863	101.3415	6.0479	-8.4050	0.0000	-15.4125	0.9042	-2.3691	74.9312	4.0865	14.6261	-2.7331	63.3632	-28.5543	-14.6019	75.6472	-0.3670	22.3770	1.8830	64.8155	-27.9668	-15.7517	
11.8830	-17.1737	0.2447	-82.2407	0.0000	1.2500	-0.0000	47.5716	0.3237	-1.7582	55.7725	-8.5370	0.4968	-0.0000	88.5699	-1.0309	1.0714	99.2382	6.4207	-8.1130	0.0000	-15.4367	0.9245	-2.3441	75.1436	4.0929	14.4238	-2.7406	63.6364	-28.5458	-14.5981	75.6305	-0.2842	22.4729	1.7841	64.6976	-27.9125	-15.7597	
11.8990	-17.1876	0.1547	-82.3826	0.0000	1.2500	-0.0000	48.4505	0.2112	-1.5604	58.5990	-8.4027	1.0564	-0.0000	87.9663	-0.9306	0.9526	96.8862	6.6525	-7.7543	-0.0000	-15.4529	0.9437	-2.3144	75.3177	4.0623	14.2740	-2.7197	63.8688	-28.5428	-14.6003	75.6078	-0.1944	22.4966	1.7041	64.6598	-27.8525	-15.7628	
11.9160	-17.2101	0.0657	-82.4994	0.0000	1.2500	-0.0000	49.4947	0.0533	-1.3919	61.6521	-8.2042	1.6860	0.0000	87.0569	-0.8808	0.8483	94.2723	6.7063	-7.3337	-0.0000	-15.4590	0.9664	-2.2819	75.4307	3.9851	14.2169	-2.6696	64.0295	-28.5507	-14.6117	75.5760	-0.0967	22.3943	1.6656	64.7508	-27.7861	-15.7588	
11.9330	-17.2409	-0.0202	-82.6056	0.0000	1.2500	-0.0000	50.7172	-0.1437	-1.2692	64.9309	-7.9625	2.3616	0.0000	85.8571	-0.8735	0.7379	91.4075	6.6218	-6.8495	-0.0000	-15.4569	0.9882	-2.2448	75.5053	3.8711	14.2125	-2.5913	64.1492	-28.5639	-14.6292	75.5386	0.0080	22.2199	1.6477	64.9222	-27.7139	-15.7500	
11.9490	-17.2751	-0.0906	-82.7048	0.0000	1.2500	-0.0000	52.0758	-0.3552	-1.2202	68.3046	-7.7069	2.9364	-0.0000	84.4257	-0.8830	0.6232	88.3580	6.4123	-6.4006	0.0000	-15.4477	1.0066	-2.2025	75.5327	3.7212	14.2288	-2.4659	64.2386	-28.5757	-14.6331	75.5128	0.1168	22.0175	1.6234	65.1299	-27.6456	-15.7405	
11.9660	-17.3104	-0.1308	-82.7868	0.0000	1.2500	-0.0000	53.5646	-0.5892	-1.2660	71.7808	-7.4359	3.3498	0.0000	82.7611	-0.9021	0.5347	85.1095	6.0471	-6.0340	0.0000	-15.4296	1.0201	-2.1552	75.4917	3.5065	14.2372	-2.2636	64.3199	-28.5812	-14.6098	75.5119	0.2389	21.7589	1.5756	65.4080	-27.5833	-15.7322	
